<svg xmlns="http://www.w3.org/2000/svg">
  <!-- Rocket -->
  <symbol id="icon-rocket" viewBox="0 0 256 256">
    <path fill="currentColor" d="M228 116a12 12 0 0 0-11.45-8.48c-10 .38-34 2.11-60.67 14.65C136 78 120.35 60.19 119.83 59.59a12 12 0 0 0-18.06.33C92 71.3 75.31 82.5 63 94c-22.37 20.88-34.83 45.45-38 75.12a12 12 0 0 0 16.32 12.63c12-5.45 28.53-15.63 39-23.75l23.47 23.47c-8.12 10.43-18.3 27-23.75 39a12 12 0 0 0 12.63 16.32c29.67-3.14 54.24-15.6 75.12-38 11.49-12.33 22.69-29 34.05-38.77a12 12 0 0 0 .33-18.06c-.6-.52-18.38-16.16-62.63-36 12.54-26.71 14.27-50.69 14.65-60.67A12 12 0 0 0 228 116ZM144 144a16 16 0 1 1 16-16 16 16 0 0 1-16 16Z"/>
  </symbol>
  <!-- Lightning / Spark -->
  <symbol id="icon-lightning" viewBox="0 0 256 256">
    <path fill="currentColor" d="M216 104a8 8 0 0 0-8-8h-56L184 32a8 8 0 0 0-13.6-7.2l-112 128a8 8 0 0 0 6 13.2h56L88 224a8 8 0 0 0 13.6 7.2l112-128a8 8 0 0 0 2.4-5.2Z"/>
  </symbol>
  <!-- Moon (Dark Mode) -->
  <symbol id="icon-moon" viewBox="0 0 256 256">
    <path fill="currentColor" d="M233.54 142.23a8 8 0 0 0-8-2 88.08 88.08 0 0 1-109.8-109.8 8 8 0 0 0-10-10 104.07 104.07 0 1 0 137.8 137.8 8 8 0 0 0-10-16Z"/>
  </symbol>
  <!-- Sun (Light Mode) -->
  <symbol id="icon-sun" viewBox="0 0 256 256">
    <path fill="currentColor" d="M120 40V24a8 8 0 0 1 16 0v16a8 8 0 0 1-16 0Zm72 88a72 72 0 1 1-72-72 72.08 72.08 0 0 1 72 72Zm-27.42-53.42a8 8 0 0 0 11.32-11.32l-11.32-11.32a8 8 0 0 0-11.32 11.32Zm75.42 53.42h-16a8 8 0 0 0 0 16h16a8 8 0 0 0 0-16Zm-27.42 64.74a8 8 0 0 0-11.32 11.32l11.32 11.32a8 8 0 0 0 11.32-11.32ZM136 216v16a8 8 0 0 1-16 0v-16a8 8 0 0 1 16 0Zm-80.58-11.32a8 8 0 0 0-11.32-11.32l-11.32 11.32a8 8 0 0 0 11.32 11.32ZM48 128H32a8 8 0 0 0 0 16h16a8 8 0 0 0 0-16Zm27.42-75.42a8 8 0 0 0-11.32-11.32L52.76 52.58a8 8 0 0 0 11.32 11.32Z"/>
  </symbol>
  <!-- List / Burger Menu -->
  <symbol id="icon-list" viewBox="0 0 256 256">
    <path fill="currentColor" d="M224 128a8 8 0 0 1-8 8H40a8 8 0 0 1 0-16h176a8 8 0 0 1 8 8Zm-8-56H40a8 8 0 0 0 0 16h176a8 8 0 0 0 0-16Zm0 112H40a8 8 0 0 0 0 16h176a8 8 0 0 0 0-16Z"/>
  </symbol>
  <!-- Caret Right -->
  <symbol id="icon-caret-right" viewBox="0 0 256 256">
    <path fill="currentColor" d="M181.66 133.66l-80 80a8 8 0 0 1-11.32-11.32L164.69 128 90.34 53.66a8 8 0 0 1 11.32-11.32l80 80a8 8 0 0 1 0 11.32Z"/>
  </symbol>
  <!-- Arrow Right -->
  <symbol id="icon-arrow-right" viewBox="0 0 256 256">
    <path fill="currentColor" d="M221.66 133.66l-72 72a8 8 0 0 1-11.32-11.32L196.69 136H40a8 8 0 0 1 0-16h156.69l-58.35-58.34a8 8 0 0 1 11.32-11.32l72 72a8 8 0 0 1 0 11.32Z"/>
  </symbol>
  <!-- File Text -->
  <symbol id="icon-file-text" viewBox="0 0 256 256">
    <path fill="currentColor" d="M213.66 82.34l-56-56A8 8 0 0 0 152 24H56a16 16 0 0 0-16 16v176a16 16 0 0 0 16 16h144a16 16 0 0 0 16-16V88a8 8 0 0 0-2.34-5.66ZM152 44l40 40h-40ZM200 216H56V40h80v56a8 8 0 0 0 8 8h56v112Zm-40-64H96a8 8 0 0 0 0 16h64a8 8 0 0 0 0-16Zm0-32H96a8 8 0 0 0 0 16h64a8 8 0 0 0 0-16Z"/>
  </symbol>
  <!-- Book Open -->
  <symbol id="icon-book-open" viewBox="0 0 256 256">
    <path fill="currentColor" d="M228.3 49.33a8 8 0 0 0-7.56-1.57c-22.18 6.45-56.12 6.55-75.14.73a4 4 0 0 0-5.6 3.66V208a8 8 0 0 1-11.2 7.33 4 4 0 0 0-5.6-3.66c-19 5.82-53 5.72-75.14-.73a8 8 0 0 0-10.23 7.74v-152A8 8 0 0 1 53.63 61c22.18 6.45 56.12 6.55 75.14.73a4 4 0 0 0 5.6-3.66V208a8 8 0 0 1 11.2-7.33 4 4 0 0 0 5.6 3.66c19-5.82 53-5.72 75.14.73a8 8 0 0 0 10.23-7.74v-152a8 8 0 0 0-2.87-5.99Z"/>
  </symbol>
  <!-- Robot -->
  <symbol id="icon-robot" viewBox="0 0 256 256">
    <path fill="currentColor" d="M224 104v96a24 24 0 0 1-24 24H56a24 24 0 0 1-24-24v-96a24 24 0 0 1 24-24h144a24 24 0 0 1 24 24ZM116 32V16a8 8 0 0 1 16 0v16a8 8 0 0 1-16 0Zm68 112a12 12 0 1 0-12 12 12 12 0 0 0 12-12Zm-80 0a12 12 0 1 0-12 12 12 12 0 0 0 12-12Z"/>
  </symbol>
  <!-- Gear -->
  <symbol id="icon-gear" viewBox="0 0 256 256">
    <path fill="currentColor" d="M128 80a48 48 0 1 0 48 48 48.05 48.05 0 0 0-48-48Zm0 80a32 32 0 1 1 32-32 32 32 0 0 1-32 32Zm94.88-51.13l-18.06-9a12 12 0 0 1-5.73-13.84 81.33 81.33 0 0 0-9-21.73 12.06 12.06 0 0 1 .53-15l13.16-14.86a8 8 0 0 0-1.89-12.78c-12.72-7.14-26.65-11.83-40.85-13.73a8 8 0 0 0-9.06 6.32l-5.69 19.34A12 12 0 0 1 138.83 56a81.33 81.33 0 0 0-21.73 0c-5.75-.9-10.4-5.36-11.38-10.9L100 25.76a8 8 0 0 0-9.06-6.32c-14.2 1.9-28.13 6.59-40.85 13.73a8 8 0 0 0-1.89 12.78L61.36 60.8a12.06 12.06 0 0 1 .53 15 81.33 81.33 0 0 0-9 21.73A12 12 0 0 1 47.16 111.4l-18.06 9a8 8 0 0 0-4.24 11.1c7.14 12.72 11.83 26.65 13.73 40.85a8 8 0 0 0 6.32 9.06l19.34 5.69a12 12 0 0 1 8.27 12.23 81.33 81.33 0 0 0 9 21.73 12.06 12.06 0 0 1-.53 15l-13.16 14.86a8 8 0 0 0 1.89 12.78c12.72 7.14 26.65 11.83 40.85 13.73a8 8 0 0 0 9.06-6.32l5.69-19.34A12 12 0 0 1 117.17 200a81.33 81.33 0 0 0 21.73 0c5.75.9 10.4 5.36 11.38 10.9l5.69 19.34a8 8 0 0 0 9.06 6.32c14.2-1.9 28.13-6.59 40.85-13.73a8 8 0 0 0 1.89-12.78L194.64 195.2a12.06 12.06 0 0 1-.53-15c2.39-3.21 4.54-6.54 6.45-10a12 12 0 0 1 13.84-5.73l18.06 9a8 8 0 0 0 11.1-4.24c7.14-12.72 11.83-26.65 13.73-40.85a8 8 0 0 0-6.32-9.06l-19.34-5.69A12 12 0 0 1 208.83 113.12a81.33 81.33 0 0 0 0-21.73 12 12 0 0 1 14.05-14.28Z"/>
  </symbol>
  <!-- Brackets Curly (Code) -->
  <symbol id="icon-code" viewBox="0 0 256 256">
    <path fill="currentColor" d="M162.83 58.83a8 8 0 0 1 0 11.34L102.68 130l60.15 60a8 8 0 1 1-11.32 11.32l-65.8-65.82a8 8 0 0 1 0-11.32l65.8-65.82a8 8 0 0 1 11.32 0Zm-69.66 65.82l65.8-65.82a8 8 0 1 0-11.32-11.32l-65.8 65.82a8 8 0 0 0 0 11.32l65.8 65.82a8 8 0 0 0 11.32-11.32Z"/>
  </symbol>
  <!-- Code (Brackets Curly Alternate) -->
  <symbol id="icon-brackets-curly" viewBox="0 0 256 256">
    <path fill="currentColor" d="M80 40v40c0 17.68-14.32 32-32 32h-8v16h8c17.68 0 32 14.32 32 32v40c0 8.84 7.16 16 16 16h24a8 8 0 0 0 0-16H96v-40c0-26.47-21.53-48-48-48 26.47 0 48-21.53 48-48V56h24a8 8 0 0 0 0-16H96c-8.84 0-16 7.16-16 16Zm96-16h-24a8 8 0 0 0 0 16h24v40c0 26.47 21.53 48 48 48-26.47 0-48 21.53-48 48v40h-24a8 8 0 0 0 0 16h24c8.84 0 16-7.16 16-16v-40c0-17.68 14.32-32 32-32h8v-16h-8c-17.68 0-32-14.32-32-32V56c0-8.84-7.16-16-16-16Z"/>
  </symbol>
  <!-- Paint Brush -->
  <symbol id="icon-paint-brush" viewBox="0 0 256 256">
    <path fill="currentColor" d="M229.66 70.34l-44-44a8 8 0 0 0-11.32 0L42.34 158.34a24 24 0 0 0 0 33.94l21.38 21.38A40 40 0 0 0 96 225.66l69-69 64.66-64.66a8 8 0 0 0 0-11.66ZM80 208a24.07 24.07 0 0 1-13.66-4.34A8 8 0 0 0 56 208a8 8 0 0 0 5.66 7.66C70.34 213.66 80 208 80 208Zm72-72l-16-16 48-48 16 16Z"/>
  </symbol>
  <!-- Projector Screen Chart -->
  <symbol id="icon-projector-screen-chart" viewBox="0 0 256 256">
    <path fill="currentColor" d="M232 56h-16V40a16 16 0 0 0-16-16H56a16 16 0 0 0-16 16v16H24a8 8 0 0 0 0 16h8v104a16 16 0 0 0 16 16h72v24H96a8 8 0 0 0 0 16h64a8 8 0 0 0 0-16h-24v-24h72a16 16 0 0 0 16-16V72h8a8 8 0 0 0 0-16ZM56 40h144v16H56Zm144 136H56V72h144Z"/>
  </symbol>
  <!-- Images -->
  <symbol id="icon-images" viewBox="0 0 256 256">
    <path fill="currentColor" d="M208 32H72a16 16 0 0 0-16 16v112a16 16 0 0 0 16 16h136a16 16 0 0 0 16-16V48a16 16 0 0 0-16-16Zm0 128H72V48h136v112Zm-132 40h128a8 8 0 0 1 0 16H64a16 16 0 0 1-16-16V80a8 8 0 0 1 16 0v112a8 8 0 0 0 8 8Z"/>
  </symbol>
  <!-- Git Branch -->
  <symbol id="icon-git-branch" viewBox="0 0 256 256">
    <path fill="currentColor" d="M208 136a32 32 0 1 0-44 29.39V168a40 40 0 0 1-40 40H92a32 32 0 1 0 0 16h32a56.06 56.06 0 0 0 56-56v-2.61A32.06 32.06 0 0 0 208 136ZM80 48a16 16 0 1 1-16 16 16 16 0 0 1 16-16Zm0 160a16 16 0 1 1 16-16 16 16 0 0 1-16 16Zm96-72a16 16 0 1 1 16-16 16 16 0 0 1-16 16Z"/>
  </symbol>
  <!-- Heart -->
  <symbol id="icon-heart" viewBox="0 0 256 256">
    <path fill="currentColor" d="M178 32c-20.65 0-38.73 8.88-50 24.3-11.27-15.42-29.35-24.3-50-24.3A58.07 58.07 0 0 0 20 90c0 48 39.46 88.22 101.4 142.46a10.05 10.05 0 0 0 13.2 0C196.54 178.22 236 138 236 90a58.07 58.07 0 0 0-58-58Zm-50 186.2C71.06 167.33 36 135.24 36 90a42 42 0 0 1 84 0 8 8 0 0 0 16 0 42 42 0 0 1 84 0c0 45.24-35.06 17.33-92 128.2Z"/>
  </symbol>
  <!-- Eye -->
  <symbol id="icon-eye" viewBox="0 0 256 256">
    <path fill="currentColor" d="M247.31 124.76c-.35-.79-37.9-84.76-119.31-84.76S9.04 124 8.69 124.76a8 8 0 0 0 0 6.48c.35.79 37.9 84.76 119.31 84.76s119-84 119.31-84.76a8 8 0 0 0 0-6.48ZM128 200c-63.4 0-95.27-61.94-96-64 8.16-15.53 40.54-64 96-64s87.84 48.47 96 64c-.73 2.06-32.6 64-96 64Zm0-112a40 40 0 1 0 40 40 40 40 0 0 0-40-40Zm0 64a24 24 0 1 1 24-24 24 24 0 0 1-24 24Z"/>
  </symbol>
  <!-- Clock -->
  <symbol id="icon-clock" viewBox="0 0 256 256">
    <path fill="currentColor" d="M128 24a104 104 0 1 0 104 104A104.11 104.11 0 0 0 128 24Zm0 192a88 88 0 1 1 88-88 88.1 88.1 0 0 1-88 88Zm56-88a8 8 0 0 1-8 8h-48a8 8 0 0 1-8-8V72a8 8 0 0 1 16 0v40h40a8 8 0 0 1 8 8Z"/>
  </symbol>
  <!-- Sparkle -->
  <symbol id="icon-sparkle" viewBox="0 0 256 256">
    <path fill="currentColor" d="M211.31 113.31l-58.62-58.62a8 8 0 0 0-11.32 0l-58.62 58.62a8 8 0 0 0 0 11.32l58.62 58.62a8 8 0 0 0 11.32 0l58.62-58.62a8 8 0 0 0 0-11.32ZM147 159l-31-31 31-31 31 31Z"/>
  </symbol>
  <!-- Funnel / Filter -->
  <symbol id="icon-funnel" viewBox="0 0 256 256">
    <path fill="currentColor" d="M228 40H28a16 16 0 0 0-13 25.06l72.94 97.26A8 8 0 0 1 89.6 168v56a8 8 0 0 0 12.35 6.67l40-26.67A8 8 0 0 0 146 197.33V168a8 8 0 0 1 1.6-4.8l72.94-97.26A16 16 0 0 0 228 40Zm-12.8 17.6L142.26 155a24 24 0 0 0-4.8 14.4v26.07l-24 16V169.4a24 24 0 0 0-4.8-14.4L35.6 57.6h179.6Z"/>
  </symbol>
  <!-- Check -->
  <symbol id="icon-check" viewBox="0 0 256 256">
    <path fill="currentColor" d="M229.66 77.66l-128 128a8 8 0 0 1-11.32 0l-56-56a8 8 0 0 1 11.32-11.32L96 188.69 218.34 66.34a8 8 0 0 1 11.32 11.32Z"/>
  </symbol>
  <!-- Minus -->
  <symbol id="icon-minus" viewBox="0 0 256 256">
    <path fill="currentColor" d="M216 136H40a8 8 0 0 1 0-16h176a8 8 0 0 1 0 16Z"/>
  </symbol>
  <!-- Layout -->
  <symbol id="icon-layout" viewBox="0 0 256 256">
    <path fill="currentColor" d="M208 32H48a16 16 0 0 0-16 16v160a16 16 0 0 0 16 16h160a16 16 0 0 0 16-16V48a16 16 0 0 0-16-16Zm0 48H48V48h160v32Z"/>
  </symbol>
  <!-- Check Circle -->
  <symbol id="icon-check-circle" viewBox="0 0 256 256">
    <path fill="currentColor" d="M128 24a104 104 0 1 0 104 104A104.11 104.11 0 0 0 128 24Zm0 192a88 88 0 1 1 88-88 88.1 88.1 0 0 1-88 88Zm45.66-114.34a8 8 0 0 1 0 11.32l-56 56a8 8 0 0 1-11.32 0l-24-24a8 8 0 0 1 11.32-11.32L112 156.69l50.34-50.35a8 8 0 0 1 11.32 0Z"/>
  </symbol>
  <!-- Warning Circle -->
  <symbol id="icon-warning-circle" viewBox="0 0 256 256">
    <path fill="currentColor" d="M128 24a104 104 0 1 0 104 104A104.11 104.11 0 0 0 128 24Zm0 192a88 88 0 1 1 88-88 88.1 88.1 0 0 1-88 88Zm-8-120V80a8 8 0 0 1 16 0v48a8 8 0 0 1-16 0Zm16 40a12 12 0 1 1-12-12 12 12 0 0 1 12 12Z"/>
  </symbol>
  <!-- Social Logos -->
  <!-- LinkedIn -->
  <symbol id="icon-linkedin-logo" viewBox="0 0 256 256">
    <path fill="currentColor" d="M216 24H40a16 16 0 0 0-16 16v176a16 16 0 0 0 16 16h176a16 16 0 0 0 16-16V40a16 16 0 0 0-16-16Zm-92 152a8 8 0 0 1-16 0v-56a8 8 0 0 1 16 0v56Zm-8-76a12 12 0 1 1 12-12 12 12 0 0 1-12 12Zm100 76a8 8 0 0 1-16 0v-36c0-11-4-20-16-20s-16 9-16 20v36a8 8 0 0 1-16 0v-56a8 8 0 0 1 16 0v4.47c4.62-7 12.18-12.47 24-12.47 20 0 28 13.5 28 34Z"/>
  </symbol>
  <!-- Instagram -->
  <symbol id="icon-instagram-logo" viewBox="0 0 256 256">
    <path fill="currentColor" d="M176 24H80a56.06 56.06 0 0 0-56 56v96a56.06 56.06 0 0 0 56 56h96a56.06 56.06 0 0 0 56-56V80a56.06 56.06 0 0 0-56-56Zm40 152a40 40 0 0 1-40 40H80a40 40 0 0 1-40-40V80a40 40 0 0 1 40-40h96a40 40 0 0 1 40 40ZM128 80a48 48 0 1 0 48 48 48.05 48.05 0 0 0-48-48Zm0 80a32 32 0 1 1 32-32 32 32 0 0 1-32 32Zm60-84a12 12 0 1 1-12-12 12 12 0 0 1 12 12Z"/>
  </symbol>
  <!-- WhatsApp -->
  <symbol id="icon-whatsapp-logo" viewBox="0 0 256 256">
    <path fill="currentColor" d="M187.58 144.84c-3-1.5-17.79-8.77-20.53-9.76s-4.75-1.49-6.75 1.49-7.73 9.76-9.48 11.75-3.5 2.23-6.5.74a81.92 81.92 0 0 1-24.07-14.86 90.3 90.3 0 0 1-16.65-20.73c-1.75-3 .75-4.38 2.25-5.86s3-3.5 4.5-5.25a20.08 20.08 0 0 0 3-5c.75-1.49.38-2.73-.12-3.73s-5.74-13.79-7.74-18.77c-2.43-6-4.88-5.11-6.75-5.21H92a12 12 0 0 0-8.62 3.86 36.6 36.6 0 0 0-11.38 27.24A64.12 64.12 0 0 0 85.39 123c13.73 18 31.81 29 52.88 35.79A52.82 52.82 0 0 0 156 160a37.89 37.89 0 0 0 22-7.1A31 31 0 0 0 190.22 133a7.87 7.87 0 0 0-2.64-8.16ZM128 24a104 104 0 0 0-91.82 153.2L25 214a12 12 0 0 0 15.17 15.17l36.8-11.18A104 104 0 1 0 128 24Zm0 192a87.87 87.87 0 0 1-44.69-12.14 8 8 0 0 0-6.19-.88L44.43 212l19-19a8 8 0 0 0 1.25-8.5A88 88 0 1 1 128 216Z"/>
  </symbol>
  <!-- GitHub -->
  <symbol id="icon-github-logo" viewBox="0 0 256 256">
    <path fill="currentColor" d="M208 24H40a16 16 0 0 0-16 16v176a16 16 0 0 0 16 16h176a16 16 0 0 0 16-16V40a16 16 0 0 0-16-16Zm-37.45 152.1a12 12 0 0 1-5.78 4.31c-3.1.88-6.1.48-9.07-.63l-10-3.77v14a8 8 0 0 1-16 0v-20c0-10.42-3.14-17.72-9.42-21.9a3.86 3.86 0 0 1-1.33-4.57 4 4 0 0 1 3.53-2.63c18.52-.78 30-10.87 30-30.8a33 33 0 0 0-8.23-22.38 4 4 0 0 1-.88-3.74 38.64 38.64 0 0 0-1-20.73 4 4 0 0 1 2.39-4.32c5.62-1.74 15.12 1.83 26 9a4 4 0 0 1 1.6 3.19 86.82 86.82 0 0 1 0 47.41c-3 8-7 13.84-13.85 17.59Z"/>
  </symbol>
  <!-- Facebook -->
  <symbol id="icon-facebook-logo" viewBox="0 0 256 256">
    <path fill="currentColor" d="M224 24H32a8 8 0 0 0-8 8v192a8 8 0 0 0 8 8h96v-80H96v-32h32V96c0-26.47 21.53-48 48-48h32v32h-32c-8.84 0-16 7.16-16 16v24h48l-8 32h-40v80h80a8 8 0 0 0 8-8V32a8 8 0 0 0-8-8Z"/>
  </symbol>
  <!-- Star (Rating) -->
  <symbol id="icon-star" viewBox="0 0 256 256">
    <path fill="currentColor" d="M234.29 114.85l-45 38.83 14 57.63a8 8 0 0 1-12.08 8.78L140 190.54l-51.21 29.55a8 8 0 0 1-12.08-8.78l14-57.63-45-38.83a8 8 0 0 1 4.54-14.15l58.63-4.89 22.42-53.78a8 8 0 0 1 14.7 0l22.42 53.78 58.63 4.89a8 8 0 0 1 4.54 14.15z"/>
  </symbol>
  <!-- Shield (Security) -->
  <symbol id="icon-shield" viewBox="0 0 256 256">
    <path fill="currentColor" d="M208 40H48a16 16 0 0 0-16 16v56c0 74.34 50 114 91.13 126.86a12 12 0 0 0 5.74 0c41.17-12.92 91.13-52.52 91.13-126.86V56a16 16 0 0 0-16-16zm-8 72c0 62.33-40.67 95.73-72 108-31.33-12.27-72-45.67-72-108V56h144z"/>
  </symbol>
  <!-- shield-check ph-fill -->
  <symbol id="icon-shield-check-fill" viewBox="0 0 256 256"><g fill="currentColor">
    <path d="M208,40H48A16,16,0,0,0,32,56v56c0,52.72,25.52,84.67,46.93,102.19,23.06,18.86,46,25.26,47,25.53a8,8,0,0,0,4.2,0c1-.27,23.91-6.67,47-25.53C198.48,196.67,224,164.72,224,112V56A16,16,0,0,0,208,40Zm-34.32,69.66-56,56a8,8,0,0,1-11.32,0l-24-24a8,8,0,0,1,11.32-11.32L112,148.69l50.34-50.35a8,8,0,0,1,11.32,11.32Z"/>
  </g></symbol>
  <!-- gauge ph -->
  <symbol id="icon-gauge" viewBox="0 0 256 256"><g fill="currentColor">
    <path d="M207.06,72.67A111.24,111.24,0,0,0,128,40h-.4C66.07,40.21,16,91,16,153.13V176a16,16,0,0,0,16,16H224a16,16,0,0,0,16-16V152A111.25,111.25,0,0,0,207.06,72.67ZM224,176H119.71l54.76-75.3a8,8,0,0,0-12.94-9.42L99.92,176H32V153.13c0-3.08.15-6.12.43-9.13H56a8,8,0,0,0,0-16H35.27c10.32-38.86,44-68.24,84.73-71.66V80a8,8,0,0,0,16,0V56.33A96.14,96.14,0,0,1,221,128H200a8,8,0,0,0,0,16h23.67c.21,2.65.33,5.31.33,8Z"/>
  </g></symbol>
  <!-- shield-check ph -->
  <symbol id="icon-shield-check" viewBox="0 0 256 256"><g fill="currentColor">
    <path d="M208,40H48A16,16,0,0,0,32,56v56c0,52.72,25.52,84.67,46.93,102.19,23.06,18.86,46,25.26,47,25.53a8,8,0,0,0,4.2,0c1-.27,23.91-6.67,47-25.53C198.48,196.67,224,164.72,224,112V56A16,16,0,0,0,208,40Zm0,72c0,37.07-13.66,67.16-40.6,89.42A129.3,129.3,0,0,1,128,223.62a128.25,128.25,0,0,1-38.92-21.81C61.82,179.51,48,149.3,48,112l0-56,160,0ZM82.34,141.66a8,8,0,0,1,11.32-11.32L112,148.69l50.34-50.35a8,8,0,0,1,11.32,11.32l-56,56a8,8,0,0,1-11.32,0Z"/>
  </g></symbol>
  <!-- target ph-bold -->
  <symbol id="icon-target-bold" viewBox="0 0 256 256"><g fill="currentColor">
    <path d="M229.26,90.4a108,108,0,0,1-177.63,114A108,108,0,0,1,195.41,43.63l20.1-20.11a12,12,0,0,1,17,17l-96,96a12,12,0,1,1-17-17l24-24a36,36,0,1,0,19.76,39.65,12,12,0,0,1,23.53,4.74,60,60,0,1,1-25.73-62L178.3,60.74a84,84,0,1,0,28.46,38,12,12,0,1,1,22.5-8.35Z"/>
  </g></symbol>
  <!-- globe ph-bold -->
  <symbol id="icon-globe-bold" viewBox="0 0 256 256"><g fill="currentColor">
    <path d="M128,20A108,108,0,1,0,236,128,108.12,108.12,0,0,0,128,20Zm0,187a113.4,113.4,0,0,1-20.39-35h40.82a116.94,116.94,0,0,1-10,20.77A108.61,108.61,0,0,1,128,207Zm-26.49-59a135.42,135.42,0,0,1,0-40h53a135.42,135.42,0,0,1,0,40ZM44,128a83.49,83.49,0,0,1,2.43-20H77.25a160.63,160.63,0,0,0,0,40H46.43A83.49,83.49,0,0,1,44,128Zm84-79a113.4,113.4,0,0,1,20.39,35H107.59a116.94,116.94,0,0,1,10-20.77A108.61,108.61,0,0,1,128,49Zm50.73,59h30.82a83.52,83.52,0,0,1,0,40H178.75a160.63,160.63,0,0,0,0-40Zm20.77-24H173.71a140.82,140.82,0,0,0-15.5-34.36A84.51,84.51,0,0,1,199.52,84ZM97.79,49.64A140.82,140.82,0,0,0,82.29,84H56.48A84.51,84.51,0,0,1,97.79,49.64ZM56.48,172H82.29a140.82,140.82,0,0,0,15.5,34.36A84.51,84.51,0,0,1,56.48,172Zm101.73,34.36A140.82,140.82,0,0,0,173.71,172h25.81A84.51,84.51,0,0,1,158.21,206.36Z"/>
  </g></symbol>
  <!-- lightbulb ph-bold -->
  <symbol id="icon-lightbulb-bold" viewBox="0 0 256 256"><g fill="currentColor">
    <path d="M180,232a12,12,0,0,1-12,12H88a12,12,0,0,1,0-24h80A12,12,0,0,1,180,232Zm40-128a91.51,91.51,0,0,1-35.17,72.35A12.26,12.26,0,0,0,180,186v2a20,20,0,0,1-20,20H96a20,20,0,0,1-20-20v-2a12,12,0,0,0-4.7-9.51A91.57,91.57,0,0,1,36,104.52C35.73,54.69,76,13.2,125.79,12A92,92,0,0,1,220,104Zm-24,0a68,68,0,0,0-69.65-68C89.56,36.88,59.8,67.55,60,104.38a67.71,67.71,0,0,0,26.1,53.19A35.87,35.87,0,0,1,100,184h56.1A36.13,36.13,0,0,1,170,157.49,67.68,67.68,0,0,0,196,104Zm-20.07-5.32a48.5,48.5,0,0,0-31.91-40,12,12,0,0,0-8,22.62,24.31,24.31,0,0,1,16.09,20,12,12,0,0,0,23.86-2.64Z"/>
  </g></symbol>
  <!-- check ph-bold -->
  <symbol id="icon-check-bold" viewBox="0 0 256 256"><g fill="currentColor">
    <path d="M232.49,80.49l-128,128a12,12,0,0,1-17,0l-56-56a12,12,0,1,1,17-17L96,183,215.51,63.51a12,12,0,0,1,17,17Z"/>
  </g></symbol>
  <!-- lightning ph-fill -->
  <symbol id="icon-lightning-fill" viewBox="0 0 256 256"><g fill="currentColor">
    <path d="M213.85,125.46l-112,120a8,8,0,0,1-13.69-7l14.66-73.33L45.19,143.49a8,8,0,0,1-3-13l112-120a8,8,0,0,1,13.69,7L153.18,90.9l57.63,21.61a8,8,0,0,1,3,12.95Z"/>
  </g></symbol>
  <!-- gauge ph-fill -->
  <symbol id="icon-gauge-fill" viewBox="0 0 256 256"><g fill="currentColor">
    <path d="M240,152v24a16,16,0,0,1-16,16H115.93a4,4,0,0,1-3.24-6.35L174.27,101a8.21,8.21,0,0,0-1.37-11.3,8,8,0,0,0-11.37,1.61l-72,99.06A4,4,0,0,1,86.25,192H32a16,16,0,0,1-16-16V153.13c0-1.79,0-3.57.13-5.33a4,4,0,0,1,4-3.8H48a8,8,0,0,0,8-8.53A8.17,8.17,0,0,0,47.73,128H23.92a4,4,0,0,1-3.87-5c12-43.84,49.66-77.13,95.52-82.28a4,4,0,0,1,4.43,4V72a8,8,0,0,0,8.53,8A8.17,8.17,0,0,0,136,71.73V44.67a4,4,0,0,1,4.43-4A112.18,112.18,0,0,1,236.23,123a4,4,0,0,1-3.88,5H208.27a8.17,8.17,0,0,0-8.25,7.47,8,8,0,0,0,8,8.53h27.92a4,4,0,0,1,4,3.86C240,149.23,240,150.61,240,152Z"/>
  </g></symbol>
  <!-- plugs ph-fill -->
  <symbol id="icon-plugs-fill" viewBox="0 0 256 256"><g fill="currentColor">
    <path d="M149.66,149.66,131.31,168l18.35,18.34a8,8,0,0,1-11.32,11.32L132,191.31l-23.31,23.32a32.06,32.06,0,0,1-45.26,0l-5.37-5.38-28.4,28.41a8,8,0,0,1-11.32-11.32l28.41-28.4-5.38-5.37a32,32,0,0,1,0-45.26L64.69,124l-6.35-6.34a8,8,0,0,1,11.32-11.32L88,124.69l18.34-18.35a8,8,0,0,1,11.32,11.32L99.31,136,120,156.69l18.34-18.35a8,8,0,0,1,11.32,11.32Zm88-131.32a8,8,0,0,0-11.32,0l-28.4,28.41-5.37-5.38a32.05,32.05,0,0,0-45.26,0L124,64.69l-6.34-6.35a8,8,0,0,0-11.32,11.32l80,80a8,8,0,0,0,11.32-11.32L191.31,132l23.32-23.31a32,32,0,0,0,0-45.26l-5.38-5.37,28.41-28.4A8,8,0,0,0,237.66,18.34Z"/>
  </g></symbol>
  <!-- check-circle ph-fill -->
  <symbol id="icon-check-circle-fill" viewBox="0 0 256 256"><g fill="currentColor">
    <path d="M128,24A104,104,0,1,0,232,128,104.11,104.11,0,0,0,128,24Zm45.66,85.66-56,56a8,8,0,0,1-11.32,0l-24-24a8,8,0,0,1,11.32-11.32L112,148.69l50.34-50.35a8,8,0,0,1,11.32,11.32Z"/>
  </g></symbol>
  <!-- handshake ph-bold -->
  <symbol id="icon-handshake-bold" viewBox="0 0 256 256"><g fill="currentColor">
    <path d="M253.88,108.11l-25.53-51a20,20,0,0,0-26.83-9L178.34,59.7,131.7,44.58a12.14,12.14,0,0,0-7.4,0L77.66,59.7,54.48,48.11a20,20,0,0,0-26.83,9L2.12,108.11a20,20,0,0,0,9,26.83l26.67,13.34,51.18,37.41A12.15,12.15,0,0,0,93,187.62l62,16a12.27,12.27,0,0,0,3,.38,12,12,0,0,0,8.48-3.52l52.62-52.62,25.83-12.92a20,20,0,0,0,8.95-26.83Zm-58.12,29.15-27.52-26a12,12,0,0,0-16.76.26c-9.66,9.74-25.06,16.81-40.81,9.55l38.19-37h22.72l25.81,51.63ZM47.32,71.37,60.59,78l-22,43.9-13.27-6.63Zm107,107.3L101.23,165l-42-30.66L85.17,82.5,128,68.61l1.69.55L90,107.68l-.13.12a20,20,0,0,0,3.4,31c20.95,13.39,46,12.07,66.33-2.73l19.2,18.15Zm63-56.77-22-43.9,13.27-6.63,21.95,43.9ZM118.55,219a12,12,0,0,1-14.62,8.62l-26.6-6.87a12,12,0,0,1-4.08-1.93L48.92,201a12,12,0,0,1,14.16-19.37l22.47,16.42,24.38,6.29A12,12,0,0,1,118.55,219Z"/>
  </g></symbol>
  <!-- fork-knife ph-bold -->
  <symbol id="icon-fork-knife-bold" viewBox="0 0 256 256"><g fill="currentColor">
    <path d="M68,88V40a12,12,0,0,1,24,0V88a12,12,0,0,1-24,0ZM220,40V224a12,12,0,0,1-24,0V180H152a12,12,0,0,1-12-12,273.23,273.23,0,0,1,7.33-57.82C157.42,68.42,176.76,40.33,203.27,29A12,12,0,0,1,220,40ZM196,62.92C182.6,77,175,98,170.77,115.38A254.41,254.41,0,0,0,164.55,156H196ZM128,39A12,12,0,0,0,104,41l4,47.46a28,28,0,0,1-56,0L56,41A12,12,0,1,0,32,39L28,87c0,.34,0,.67,0,1a52.1,52.1,0,0,0,40,50.59V224a12,12,0,0,0,24,0V138.59A52.1,52.1,0,0,0,132,88c0-.33,0-.66,0-1Z"/>
  </g></symbol>
  <!-- factory ph-bold -->
  <symbol id="icon-factory-bold" viewBox="0 0 256 256"><g fill="currentColor">
    <path d="M120,176a12,12,0,0,1-12,12H80a12,12,0,0,1,0-24h28A12,12,0,0,1,120,176Zm56-12H148a12,12,0,0,0,0,24h28a12,12,0,0,0,0-24Zm68,52a12,12,0,0,1-12,12H24a12,12,0,0,1,0-24h4V88a12,12,0,0,1,19.2-9.6L92,112V88a12,12,0,0,1,19.2-9.6l33.33,25,10.61-74.23A20.1,20.1,0,0,1,174.94,12h18.12a20.1,20.1,0,0,1,19.8,17.17l15,105.13c0,.1.12,1.34.12,1.7v68h4A12,12,0,0,1,244,216Zm-77.57-96.17L172,124h30.16L189.59,36H178.41ZM52,204H204V148H168a12,12,0,0,1-7.2-2.4l-14.38-10.78-.06,0L116,112v24a12,12,0,0,1-19.2,9.6L52,112Z"/>
  </g></symbol>
  <!-- stethoscope ph-bold -->
  <symbol id="icon-stethoscope-bold" viewBox="0 0 256 256"><g fill="currentColor">
    <path d="M248,160a40,40,0,1,0-52.64,37.94A28,28,0,0,1,168,220H144a28,28,0,0,1-28-28V154.9c31.73-5.78,56-34.09,56-67.73V40a12,12,0,0,0-12-12H136a12,12,0,0,0,0,24h12V87.17c0,24.4-19.47,44.52-43.41,44.83A44,44,0,0,1,60,88V52H72a12,12,0,0,0,0-24H48A12,12,0,0,0,36,40V88a68,68,0,0,0,56,66.93V192a52.06,52.06,0,0,0,52,52h24a52.06,52.06,0,0,0,51.61-45.72A40.08,40.08,0,0,0,248,160Zm-40,16a16,16,0,1,1,16-16A16,16,0,0,1,208,176Z"/>
  </g></symbol>
  <!-- paw-print ph-bold -->
  <symbol id="icon-paw-print-bold" viewBox="0 0 256 256"><g fill="currentColor">
    <path d="M236,108a24,24,0,1,1-24-24A24,24,0,0,1,236,108ZM68,108a24,24,0,1,0-24,24A24,24,0,0,0,68,108ZM92,84A24,24,0,1,0,68,60,24,24,0,0,0,92,84Zm72,0a24,24,0,1,0-24-24A24,24,0,0,0,164,84Zm48,100a44,44,0,0,1-61.1,40.55,60.15,60.15,0,0,0-45.8,0A44,44,0,0,1,67,145.34,31.33,31.33,0,0,0,81.91,126.6a48,48,0,0,1,92.18,0A31.34,31.34,0,0,0,189,145.34,44,44,0,0,1,212,184Zm-24,0a20,20,0,0,0-10.49-17.6l-.1-.06a55.22,55.22,0,0,1-26.37-33,24,24,0,0,0-46.08,0,55.21,55.21,0,0,1-26.37,33.05l-.1.06A20,20,0,0,0,88,204a19.77,19.77,0,0,0,7.8-1.58l.13,0a84,84,0,0,1,64.14,0l.13,0A19.77,19.77,0,0,0,168,204,20,20,0,0,0,188,184Z"/>
  </g></symbol>
  <!-- briefcase ph-bold -->
  <symbol id="icon-briefcase-bold" viewBox="0 0 256 256"><g fill="currentColor">
    <path d="M100,100a12,12,0,0,1,12-12h32a12,12,0,0,1,0,24H112A12,12,0,0,1,100,100ZM236,68V196a20,20,0,0,1-20,20H40a20,20,0,0,1-20-20V68A20,20,0,0,1,40,48H76V40a28,28,0,0,1,28-28h48a28,28,0,0,1,28,28v8h36A20,20,0,0,1,236,68ZM100,48h56V40a4,4,0,0,0-4-4H104a4,4,0,0,0-4,4ZM44,72v35.23A180.06,180.06,0,0,0,128,128a180,180,0,0,0,84-20.78V72ZM212,192V133.94A204.27,204.27,0,0,1,128,152a204.21,204.21,0,0,1-84-18.06V192Z"/>
  </g></symbol>
  <!-- trend-down ph-bold -->
  <symbol id="icon-trend-down-bold" viewBox="0 0 256 256"><g fill="currentColor">
    <path d="M244,128v64a12,12,0,0,1-12,12H168a12,12,0,0,1,0-24h35l-67-67-31.51,31.52a12,12,0,0,1-17,0l-72-72a12,12,0,0,1,17-17L96,119l31.51-31.52a12,12,0,0,1,17,0L220,163V128a12,12,0,0,1,24,0Z"/>
  </g></symbol>
  <!-- x-circle ph-bold -->
  <symbol id="icon-x-circle-bold" viewBox="0 0 256 256"><g fill="currentColor">
    <path d="M168.49,104.49,145,128l23.52,23.51a12,12,0,0,1-17,17L128,145l-23.51,23.52a12,12,0,0,1-17-17L111,128,87.51,104.49a12,12,0,0,1,17-17L128,111l23.51-23.52a12,12,0,0,1,17,17ZM236,128A108,108,0,1,1,128,20,108.12,108.12,0,0,1,236,128Zm-24,0a84,84,0,1,0-84,84A84.09,84.09,0,0,0,212,128Z"/>
  </g></symbol>
  <!-- sparkle ph-bold -->
  <symbol id="icon-sparkle-bold" viewBox="0 0 256 256"><g fill="currentColor">
    <path d="M199,125.31l-49.88-18.39L130.69,57a19.92,19.92,0,0,0-37.38,0L74.92,106.92,25,125.31a19.92,19.92,0,0,0,0,37.38l49.88,18.39L93.31,231a19.92,19.92,0,0,0,37.38,0l18.39-49.88L199,162.69a19.92,19.92,0,0,0,0-37.38Zm-63.38,35.16a12,12,0,0,0-7.11,7.11L112,212.28l-16.47-44.7a12,12,0,0,0-7.11-7.11L43.72,144l44.7-16.47a12,12,0,0,0,7.11-7.11L112,75.72l16.47,44.7a12,12,0,0,0,7.11,7.11L180.28,144ZM140,40a12,12,0,0,1,12-12h12V16a12,12,0,0,1,24,0V28h12a12,12,0,0,1,0,24H188V64a12,12,0,0,1-24,0V52H152A12,12,0,0,1,140,40ZM252,88a12,12,0,0,1-12,12h-4v4a12,12,0,0,1-24,0v-4h-4a12,12,0,0,1,0-24h4V72a12,12,0,0,1,24,0v4h4A12,12,0,0,1,252,88Z"/>
  </g></symbol>
  <!-- check-circle ph-bold -->
  <symbol id="icon-check-circle-bold" viewBox="0 0 256 256"><g fill="currentColor">
    <path d="M176.49,95.51a12,12,0,0,1,0,17l-56,56a12,12,0,0,1-17,0l-24-24a12,12,0,1,1,17-17L112,143l47.51-47.52A12,12,0,0,1,176.49,95.51ZM236,128A108,108,0,1,1,128,20,108.12,108.12,0,0,1,236,128Zm-24,0a84,84,0,1,0-84,84A84.09,84.09,0,0,0,212,128Z"/>
  </g></symbol>
  <!-- google-logo ph-bold -->
  <symbol id="icon-google-logo-bold" viewBox="0 0 256 256"><g fill="currentColor">
    <path d="M228,128a100,100,0,1,1-22.86-63.64,12,12,0,0,1-18.51,15.28A76,76,0,1,0,203.05,140H128a12,12,0,0,1,0-24h88A12,12,0,0,1,228,128Z"/>
  </g></symbol>
  <!-- pencil-simple ph -->
  <symbol id="icon-pencil-simple" viewBox="0 0 256 256"><g fill="currentColor">
    <path d="M227.31,73.37,182.63,28.68a16,16,0,0,0-22.63,0L36.69,152A15.86,15.86,0,0,0,32,163.31V208a16,16,0,0,0,16,16H92.69A15.86,15.86,0,0,0,104,219.31L227.31,96a16,16,0,0,0,0-22.63ZM92.69,208H48V163.31l88-88L180.69,120ZM192,108.68,147.31,64l24-24L216,84.68Z"/>
  </g></symbol>
  <!-- book-open ph-bold -->
  <symbol id="icon-book-open-bold" viewBox="0 0 256 256"><g fill="currentColor">
    <path d="M232,44H160a43.86,43.86,0,0,0-32,13.85A43.86,43.86,0,0,0,96,44H24A12,12,0,0,0,12,56V200a12,12,0,0,0,12,12H96a20,20,0,0,1,20,20,12,12,0,0,0,24,0,20,20,0,0,1,20-20h72a12,12,0,0,0,12-12V56A12,12,0,0,0,232,44ZM96,188H36V68H96a20,20,0,0,1,20,20V192.81A43.79,43.79,0,0,0,96,188Zm124,0H160a43.71,43.71,0,0,0-20,4.83V88a20,20,0,0,1,20-20h60Z"/>
  </g></symbol>
  <!-- funnel ph-bold -->
  <symbol id="icon-funnel-bold" viewBox="0 0 256 256"><g fill="currentColor">
    <path d="M234.29,47.91A20,20,0,0,0,216,36H40A20,20,0,0,0,25.2,69.45l.12.14L92,140.75V216a20,20,0,0,0,31.1,16.64l32-21.33A20,20,0,0,0,164,194.66V140.75l66.67-71.16.12-.14A20,20,0,0,0,234.29,47.91Zm-91,79.89A12,12,0,0,0,140,136v56.52l-24,16V136a12,12,0,0,0-3.25-8.2L49.23,60H206.77Z"/>
  </g></symbol>
  <!-- map-pin ph-bold -->
  <symbol id="icon-map-pin-bold" viewBox="0 0 256 256"><g fill="currentColor">
    <path d="M128,60a44,44,0,1,0,44,44A44.05,44.05,0,0,0,128,60Zm0,64a20,20,0,1,1,20-20A20,20,0,0,1,128,124Zm0-112a92.1,92.1,0,0,0-92,92c0,77.36,81.64,135.4,85.12,137.83a12,12,0,0,0,13.76,0,259,259,0,0,0,42.18-39C205.15,170.57,220,136.37,220,104A92.1,92.1,0,0,0,128,12Zm31.3,174.71A249.35,249.35,0,0,1,128,216.89a249.35,249.35,0,0,1-31.3-30.18C80,167.37,60,137.31,60,104a68,68,0,0,1,136,0C196,137.31,176,167.37,159.3,186.71Z"/>
  </g></symbol>
  <!-- buildings ph-bold -->
  <symbol id="icon-buildings-bold" viewBox="0 0 256 256"><g fill="currentColor">
    <path d="M240,204H228V96a20,20,0,0,0-20-20H172V32a20,20,0,0,0-28.45-18.12l-104,48.54A20.06,20.06,0,0,0,28,80.55V204H16a12,12,0,0,0,0,24H240a12,12,0,0,0,0-24ZM204,100V204H172V100ZM52,83.09,148,38.3V204H52ZM132,112v12a12,12,0,0,1-24,0V112a12,12,0,0,1,24,0Zm-40,0v12a12,12,0,0,1-24,0V112a12,12,0,0,1,24,0Zm0,52v12a12,12,0,0,1-24,0V164a12,12,0,0,1,24,0Zm40,0v12a12,12,0,0,1-24,0V164a12,12,0,0,1,24,0Z"/>
  </g></symbol>
  <!-- x ph -->
  <symbol id="icon-x" viewBox="0 0 256 256"><g fill="currentColor">
    <path d="M205.66,194.34a8,8,0,0,1-11.32,11.32L128,139.31,61.66,205.66a8,8,0,0,1-11.32-11.32L116.69,128,50.34,61.66A8,8,0,0,1,61.66,50.34L128,116.69l66.34-66.35a8,8,0,0,1,11.32,11.32L139.31,128Z"/>
  </g></symbol>
  <!-- plus ph -->
  <symbol id="icon-plus" viewBox="0 0 256 256"><g fill="currentColor">
    <path d="M224,128a8,8,0,0,1-8,8H136v80a8,8,0,0,1-16,0V136H40a8,8,0,0,1,0-16h80V40a8,8,0,0,1,16,0v80h80A8,8,0,0,1,224,128Z"/>
  </g></symbol>
</svg>
